<svg width="112" height="50" viewBox="0 0 112 50" fill="none" xmlns="http://www.w3.org/2000/svg">
<path d="M3.95228 39.283L0.380859 39.283L0.38088 -0.000106812L3.9523 -0.000106799L3.95228 39.283Z" fill="#77E1FF"/>
<path d="M11.0953 39.283L7.52393 39.283L7.52395 -0.000106812L11.0954 -0.000106799L11.0953 39.283Z" fill="#77E1FF"/>
<path d="M18.237 39.283L14.6655 39.283L14.6655 -0.000106812L18.237 -0.000106799L18.237 39.283Z" fill="#77E1FF"/>
<path d="M25.3786 39.283L21.8071 39.283L21.8071 -0.000106812L25.3786 -0.000106799L25.3786 39.283Z" fill="#77E1FF"/>
<path d="M32.5216 39.283L28.9502 39.283L28.9502 -0.000106812L32.5216 -0.000106799L32.5216 39.283Z" fill="#77E1FF"/>
<path d="M39.6652 39.283L36.0938 39.283L36.0938 -0.000102997L39.6652 -0.000102984L39.6652 39.283Z" fill="#77E1FF"/>
<path d="M14.6671 50L11.0957 50L11.0957 10.7169L14.6671 10.7169L14.6671 50Z" fill="#161EDE"/>
<path d="M21.8068 49.9978L18.2354 49.9978L18.2354 10.7147L21.8068 10.7147L21.8068 49.9978Z" fill="#161EDE"/>
<path d="M28.9498 50L25.3784 50L25.3784 10.7169L28.9499 10.7169L28.9498 50Z" fill="#161EDE"/>
<path d="M36.0934 49.9978L32.522 49.9978L32.522 10.7147L36.0934 10.7147L36.0934 49.9978Z" fill="#161EDE"/>
<path d="M43.235 49.9978L39.6636 49.9978L39.6636 10.7147L43.235 10.7147L43.235 49.9978Z" fill="#161EDE"/>
<path d="M50.3761 50L46.8047 50L46.8047 10.7169L50.3761 10.7169L50.3761 50Z" fill="#161EDE"/>
<path d="M108.748 34.8331V31.5159H109.463L110.127 32.9944L110.8 31.5159H111.505V34.8331H110.863V32.6911L110.396 33.7716H109.857L109.391 32.6816V34.8331H108.748ZM106.675 34.8331V32.0751H105.7V31.5159H108.333V32.0751H107.359V34.8331H106.675Z" fill="#090A3A"/>
<path d="M67.6059 32.4365H71.3278C73.7151 32.4365 74.9088 31.4496 74.9088 29.4759C74.9088 28.5172 74.5798 27.7747 73.9219 27.2484C73.2828 26.7032 72.3241 26.4307 71.0459 26.4307H67.6059V32.4365ZM67.6059 18.2255V24.0622H70.2282C71.638 24.0622 72.6813 23.7802 73.358 23.2163C74.0535 22.6335 74.4013 21.8816 74.4013 20.9605C74.4013 20.1522 74.0911 19.4943 73.4708 18.9868C72.8692 18.4793 71.9482 18.2255 70.7075 18.2255H67.6059ZM64.7017 15.8288H70.9331C72.9256 15.8288 74.4952 16.2987 75.6419 17.2386C76.7886 18.1597 77.3619 19.3815 77.3619 20.9042C77.3619 21.9568 77.0611 22.8779 76.4596 23.6674C75.8769 24.4569 75.125 24.9645 74.2039 25.19C75.2378 25.378 76.1024 25.8573 76.798 26.628C77.5123 27.3987 77.8694 28.4326 77.8694 29.7297C77.8694 31.2335 77.3525 32.4647 76.3186 33.4234C75.3035 34.3633 73.8655 34.8332 72.0046 34.8332H64.7017V15.8288Z" fill="#090A3A"/>
<path d="M89.8545 20.5376H92.6177V34.8332H89.8545V32.3801C89.1026 34.1283 87.6176 35.0024 85.3994 35.0024C83.9896 35.0024 82.8711 34.5889 82.0441 33.7618C81.217 32.9159 80.8034 31.7598 80.8034 30.2936V20.5376H83.5949V29.6169C83.5949 30.5944 83.8298 31.3463 84.2998 31.8726C84.7885 32.3801 85.4558 32.6339 86.3017 32.6339C87.3732 32.6339 88.2285 32.2579 88.8676 31.506C89.5255 30.7541 89.8545 29.6921 89.8545 28.3198V20.5376Z" fill="#090A3A"/>
<path d="M103.862 14.8701V17.295C103.43 17.107 102.978 17.013 102.509 17.013C101.136 17.013 100.45 17.8307 100.45 19.4661V20.5376H103.467V22.6805H100.45V34.8332H97.6869V22.6805H95.403V20.5376H97.6869V19.4379C97.6869 17.9529 98.0817 16.7875 98.8712 15.9416C99.6795 15.0769 100.807 14.6445 102.255 14.6445C102.781 14.6445 103.317 14.7197 103.862 14.8701Z" fill="#090A3A"/>
</svg>
