<svg width="55" height="23" viewBox="0 0 55 23" fill="none" xmlns="http://www.w3.org/2000/svg">
  <path d="M29.7285 7.24585H32.5104C33.3999 7.24585 34.1005 7.4553 34.6122 7.87487C35.1239 8.28582 35.3798 8.83133 35.3798 9.51138C35.3798 9.98133 35.2452 10.3923 34.9768 10.7449C34.7169 11.0975 34.3809 11.3235 33.9699 11.4243C34.4313 11.5085 34.8177 11.7219 35.1279 12.0659C35.4467 12.4099 35.6064 12.8712 35.6064 13.4505C35.6064 14.122 35.3758 14.6715 34.9145 15.0997C34.4611 15.5192 33.8195 15.7287 32.9889 15.7287H29.7292V7.24585H29.7285ZM31.025 8.31565V10.9212H32.1955C32.8246 10.9212 33.2905 10.7953 33.5928 10.5434C33.903 10.2836 34.0587 9.94752 34.0587 9.53657C34.0587 9.17599 33.9202 8.88236 33.6432 8.65568C33.3747 8.42899 32.9638 8.31565 32.4096 8.31565H31.025ZM31.025 14.6589H32.6867C33.7525 14.6589 34.2854 14.2181 34.2854 13.3372C34.2854 12.909 34.1383 12.5776 33.8447 12.343C33.5596 12.0997 33.1315 11.9778 32.5608 11.9778H31.025V14.6589Z" fill="#090A3A"/>
  <path d="M40.9561 9.34849H42.1896V15.7295H40.9561V14.6345C40.6207 15.4147 39.9579 15.8051 38.9676 15.8051C38.3386 15.8051 37.8388 15.6201 37.4697 15.2509C37.1005 14.8731 36.9155 14.3575 36.9155 13.7026V9.34783H38.1616V13.4003C38.1616 13.8365 38.2664 14.1725 38.4765 14.4072C38.6946 14.6339 38.9928 14.7472 39.37 14.7472C39.8485 14.7472 40.2303 14.5795 40.5153 14.2435C40.809 13.9081 40.9561 13.4335 40.9561 12.821V9.34717V9.34849Z" fill="#090A3A"/>
  <path d="M47.209 6.81852V7.90091C47.0162 7.81674 46.8147 7.77498 46.6052 7.77498C45.9928 7.77498 45.6865 8.14019 45.6865 8.86996V9.34852H47.0334V10.305H45.6865V15.7295H44.453V10.305H43.4336V9.34852H44.453V8.85737C44.453 8.19455 44.6293 7.67423 44.982 7.29642C45.3425 6.91066 45.8463 6.71777 46.4925 6.71777C46.7272 6.71777 46.9664 6.75158 47.2097 6.81852H47.209Z" fill="#090A3A"/>
  <path d="M1.78963 0H0.146484V18.0712H1.78963V0Z" fill="#77E1FF"/>
  <path d="M5.07527 0H3.43213V18.0712H5.07527V0Z" fill="#77E1FF"/>
  <path d="M8.36091 0H6.71777V18.0712H8.36091V0Z" fill="#77E1FF"/>
  <path d="M11.6466 0H10.0034V18.0712H11.6466V0Z" fill="#77E1FF"/>
  <path d="M14.9327 0H13.2896V18.0712H14.9327V0Z" fill="#77E1FF"/>
  <path d="M18.2183 0H16.5752V18.0712H18.2183V0Z" fill="#77E1FF"/>
  <path d="M6.71834 4.92896H5.0752V23.0002H6.71834V4.92896Z" fill="#161EDE"/>
  <path d="M10.0045 4.92896H8.36133V23.0002H10.0045V4.92896Z" fill="#161EDE"/>
  <path d="M13.2896 4.92896H11.6465V23.0002H13.2896V4.92896Z" fill="#161EDE"/>
  <path d="M16.5753 4.92896H14.9321V23.0002H16.5753V4.92896Z" fill="#161EDE"/>
  <path d="M19.8609 4.92896H18.2178V23.0002H19.8609V4.92896Z" fill="#161EDE"/>
  <path d="M23.1466 4.92896H21.5034V23.0002H23.1466V4.92896Z" fill="#161EDE"/>
  <path d="M53.9442 8.60265C53.8295 8.33421 53.6704 8.09824 53.467 7.89475C53.2635 7.69127 53.0275 7.53219 52.7591 7.41752C52.4906 7.30285 52.203 7.24585 51.8961 7.24585C51.5892 7.24585 51.3015 7.30285 51.0331 7.41752C50.7646 7.53219 50.5293 7.69127 50.3252 7.89475C50.1217 8.09824 49.9626 8.33421 49.8479 8.60265C49.7333 8.87109 49.6763 9.15876 49.6763 9.46565C49.6763 9.77254 49.7333 10.0602 49.8479 10.3286C49.9626 10.5971 50.1223 10.8331 50.3252 11.0365C50.5287 11.24 50.7646 11.3991 51.0331 11.5138C51.3015 11.6284 51.5892 11.6854 51.8961 11.6854C52.203 11.6854 52.4913 11.6284 52.7591 11.5138C53.0275 11.3991 53.2635 11.2394 53.467 11.0365C53.6704 10.8331 53.8295 10.5971 53.9442 10.3286C54.0589 10.0602 54.1159 9.7732 54.1159 9.46565C54.1159 9.1581 54.0589 8.87043 53.9442 8.60265ZM53.4583 10.375C53.2953 10.6481 53.0779 10.8655 52.8048 11.0286C52.5317 11.1916 52.2288 11.2725 51.8961 11.2725C51.5633 11.2725 51.2598 11.1916 50.9873 11.0286C50.7149 10.8655 50.4968 10.6481 50.3338 10.375C50.1707 10.102 50.0899 9.79905 50.0899 9.46631C50.0899 9.13357 50.1707 8.83 50.3338 8.55758C50.4968 8.2845 50.7143 8.06643 50.9873 7.90403C51.2604 7.74098 51.5633 7.65945 51.8961 7.65945C52.2288 7.65945 52.5324 7.74098 52.8048 7.90403C53.0779 8.06643 53.2953 8.2845 53.4583 8.55758C53.6214 8.83066 53.7023 9.13357 53.7023 9.46631C53.7023 9.79905 53.6214 10.1026 53.4583 10.375Z" fill="#090A3A"/>
  <path d="M52.4115 9.65135C52.4115 9.65135 52.4149 9.64936 52.4162 9.64869C52.5163 9.59501 52.6004 9.51812 52.6654 9.41737C52.731 9.31662 52.7642 9.19665 52.7642 9.05812C52.7642 8.91959 52.7323 8.80293 52.6687 8.70682C52.6051 8.61204 52.5242 8.53979 52.4268 8.49008C52.33 8.44169 52.2293 8.4165 52.1259 8.4165H51.1436V10.4646H51.5021V9.7289H52.0642L52.4487 10.4646H52.8483L52.4122 9.65068L52.4115 9.65135ZM51.5021 8.69754H52.0178C52.1066 8.69754 52.1888 8.72538 52.2637 8.78039C52.338 8.83607 52.3764 8.92887 52.3764 9.05812C52.3764 9.18737 52.3386 9.28083 52.2637 9.34843C52.1888 9.41604 52.104 9.44918 52.0092 9.44918H51.5021V8.69688V8.69754Z" fill="#090A3A"/>
</svg>
