<svg width="20" height="16" viewBox="0 0 20 16" fill="none" xmlns="http://www.w3.org/2000/svg">
<path fill-rule="evenodd" clip-rule="evenodd" d="M9.71114 4.25625L9.75449 4.9483L9.03194 4.86356C6.40184 4.53872 4.10411 3.4371 2.15321 1.58693L1.19944 0.668915L0.953773 1.34684C0.433533 2.85804 0.765908 4.45398 1.84974 5.52735C2.42779 6.12054 2.29773 6.20528 1.3006 5.85219C0.953773 5.7392 0.6503 5.65446 0.621397 5.69683C0.52024 5.7957 0.867066 7.08092 1.14164 7.58937C1.51737 8.29553 2.28327 8.98758 3.12144 9.39716L3.82954 9.72199L2.99138 9.73612C2.18212 9.73612 2.15321 9.75024 2.23992 10.0468C2.52894 10.9649 3.67058 11.9394 4.94228 12.3631L5.83825 12.6597L5.05789 13.1116C3.9018 13.7613 2.54339 14.1285 1.18499 14.1567C0.534691 14.1709 0 14.2273 0 14.2697C0 14.411 1.76303 15.2019 2.78906 15.5126C5.86715 16.4306 9.52328 16.0351 12.269 14.4674C14.2199 13.3517 16.1708 11.1343 17.0812 8.98758C17.5725 7.84359 18.0639 5.75333 18.0639 4.75057C18.0639 4.10089 18.1072 4.01615 18.9165 3.23937C19.3934 2.78742 19.8414 2.2931 19.9281 2.15187C20.0726 1.88352 20.0581 1.88352 19.3211 2.12362C18.0928 2.54732 17.9194 2.49083 18.5263 1.85528C18.9743 1.40333 19.509 0.584174 19.509 0.344077C19.509 0.301707 19.2922 0.372324 19.0466 0.499434C18.7864 0.640668 18.2084 0.852518 17.7749 0.979629L16.9945 1.21973L16.2864 0.753655C15.8962 0.499434 15.3471 0.216967 15.058 0.132227C14.321 -0.0655006 13.1939 -0.0372539 12.5291 0.18872C10.7227 0.824272 9.58108 2.46258 9.71114 4.25625Z" fill="currentColor"/>
</svg>
