<svg width="22" height="14" viewBox="0 0 22 14" fill="none" xmlns="http://www.w3.org/2000/svg">
  <path fill-rule="evenodd" clip-rule="evenodd" d="M1 0C0.447715 0 0 0.447716 0 1V13C0 13.5523 0.447716 14 1 14H21C21.5523 14 22 13.5523 22 13V1C22 0.447715 21.5523 0 21 0H1ZM3.26507 2.57607C3.0309 2.42971 2.72242 2.5009 2.57607 2.73507C2.42971 2.96924 2.5009 3.27771 2.73507 3.42407L10.7351 8.42407C10.8972 8.5254 11.1029 8.5254 11.2651 8.42407L19.2651 3.42407C19.4992 3.27771 19.5704 2.96924 19.4241 2.73507C19.2777 2.5009 18.9692 2.42971 18.7351 2.57607L11.0001 7.41044L3.26507 2.57607Z" fill="currentColor"/>
</svg>
