<svg width="18" height="17" viewBox="0 0 18 17" fill="none" xmlns="http://www.w3.org/2000/svg">
<path fill-rule="evenodd" clip-rule="evenodd" d="M4.10044 5.47827H0.317871V16.8433H4.10044V5.47827Z" fill="currentColor"/>
<path fill-rule="evenodd" clip-rule="evenodd" d="M4.34912 1.96308C4.32457 0.848745 3.52771 0 2.23371 0C0.939718 0 0.09375 0.848745 0.09375 1.96308C0.09375 3.05434 0.914714 3.92752 2.18461 3.92752H2.20878C3.52771 3.92752 4.34912 3.05434 4.34912 1.96308Z" fill="currentColor"/>
<path fill-rule="evenodd" clip-rule="evenodd" d="M17.743 10.3272C17.743 6.83637 15.8769 5.21167 13.3878 5.21167C11.3795 5.21167 10.4804 6.31477 9.97834 7.08861V5.47885H6.19531C6.24517 6.54528 6.19531 16.8439 6.19531 16.8439H9.97834V10.4967C9.97834 10.1571 10.0029 9.81822 10.1029 9.57503C10.3763 8.89645 10.9987 8.19389 12.0437 8.19389C13.413 8.19389 13.9604 9.23604 13.9604 10.7633V16.8436H17.7428L17.743 10.3272Z" fill="currentColor"/>
</svg>
